<?xml version="1.0" encoding="UTF-8"?>
<!-- Created with Inkscape (http://www.inkscape.org/) -->
<svg width="210mm" height="210mm" version="1.1" viewBox="0 0 210 210" xmlns="http://www.w3.org/2000/svg">
 <g transform="translate(-220)">
  <rect x="220" width="210" height="210" fill="#fff" stroke-width="1.5" style="paint-order:stroke fill markers"/>
  <g transform="matrix(3.3977 0 0 3.3977 -844.37 -803.83)">
   <path d="m345.42 263.47c0.38774-6e-5 0.92849-0.71606 2.12-2.2509 1.9971-2.572 2.2914-3.6873 1.213-4.5948-1.1825-0.99491-2.4693-0.59891-3.856 1.1842-1.4735 1.8948-1.7187 1.4365-0.48569 4.0612 0.48246 1.0266 0.666 1.6003 1.0084 1.6003z" fill="#d366ff" style="paint-order:stroke fill markers"/>
   <path d="m353.26 272.36c0.26843-0.40947-1.5241-4.6214-3.5196-7.4706-0.55287-0.48493-3.3489-0.78515-3.3326-0.3358 0.0513 1.4197 1.9008 4.4195 3.6212 5.535 1.0142 0.65759 1.2715 0.77438 1.8721 1.2268 0.64216 0.48367 1.0904 1.4542 1.3589 1.0446z" fill="#d366ff" style="paint-order:stroke fill markers"/>
   <path d="m343.16 250.78c0.20886-6e-3 0.48932 0.2093 0.45408 0.61688l-0.21934 2.5368c-0.0133 0.15373-0.0966 0.29293-0.22912 0.29587l-0.16745 4e-3c-0.13252 3e-3 -0.21575-0.10964-0.24914-0.25936l-0.5591-2.5069c-0.0883-0.39591 0.17546-0.6809 0.38752-0.68349 0.21206-3e-3 0.37369 2e-3 0.58255-4e-3z" fill="#7210ff" stroke-width="1.4768" style="paint-order:stroke fill markers"/>
   <path d="m353.35 269.66c0.19226-0.17481-5e-3 -2.177-0.65217-3.9059-0.21978-0.32254-1.8589-0.86379-1.9116-0.63104-0.0792 0.35015 0.40291 0.69512 0.74048 1.3662 0.33758 0.67105 1.5175 3.4084 1.8232 3.1708z" fill="#d366ff" style="paint-order:stroke fill markers"/>
   <g fill="#7210ff">
    <path d="m340 256.76c-0.88319-0.0249-1.7693 0.33289-2.6412 1.0573-0.82075 1.1086-0.77841 1.2236 4.8286 13.223 1.917 4.1028 1.3633 4.056 1.1162 3.9321-2.5157-1.2899-3.7024-4.6327-3.4086-4.9485 0.29397-0.31586-0.52141-2.0143-0.52141-2.0143-1.0631-2.4022-1.2729-2.988-3.1245-0.10999-1.4026 2.1801-1.4727 3.4478-1.2981 4.0936 1.1451 3.3985 1.9371 8.7235 5.5258 11.028s8.9701 0.55293 10.065 0 2.7915-1.8714 2.8915-4.3834-0.62215-5.7544-3.4862-7.1406c-5.4315-2.999-8.2522-14.41-9.3364-14.659-0.20328-0.0467-0.407-0.0728-0.61082-0.0785z" style="paint-order:stroke fill markers"/>
    <path d="m345.72 252.63c0.11798 0.0636 0.20476 0.27329 0.0544 0.48847l-0.93575 1.3393c-0.0567 0.0812-0.14766 0.13179-0.22224 0.0909l-0.0943-0.0515c-0.0746-0.0409-0.0847-0.13014-0.0552-0.22405l0.49358-1.5724c0.0779-0.24833 0.31594-0.32207 0.43461-0.25548 0.1188 0.0664 0.20701 0.121 0.325 0.18468z" stroke-width=".9476" style="paint-order:stroke fill markers"/>
    <path d="m340.26 252.46c0.13444-0.0916 0.39939-0.053 0.53035 0.25661l0.81512 1.9268c0.0494 0.11676 0.0475 0.25225-0.0382 0.30972l-0.10809 0.0728c-0.0856 0.0575-0.18266 0.0108-0.26109-0.0836l-1.3133-1.5799c-0.20741-0.24952-0.14247-0.56584-5e-3 -0.65628 0.13768-0.0907 0.24537-0.15463 0.3798-0.2462z" stroke-width="1.1734" style="paint-order:stroke fill markers"/>
   </g>
  </g>
 </g>
</svg>
